# Blender v2.72 (sub 0) OBJ File: 'Key.blend'
# www.blender.org
mtllib key.mtl
v -0.508463 2.146658 -0.194153
v -0.040534 2.074308 -0.221384
v -0.671412 2.074108 -0.185689
v 0.079357 2.146639 -0.227355
v 0.848263 2.071221 0.001118
v 0.684301 2.143724 0.011254
v 0.215304 2.071285 0.036958
v 0.094728 2.143602 0.044572
v 0.199265 0.079308 -0.257138
v 0.078265 0.079308 -0.250293
v 0.199808 1.051337 -0.246385
v 0.078808 1.051337 -0.239542
v -0.026660 0.076310 0.028493
v 0.093683 0.076284 0.021692
v -0.026119 1.048286 0.039257
v 0.094226 1.048313 0.032443
v 0.464053 3.187236 -0.237557
v 0.497887 3.255129 -0.163874
v 0.835238 2.844198 -0.262410
v 0.912146 2.862415 -0.191691
v -0.327670 3.255077 -0.117210
v -0.302484 3.187173 -0.194200
v -0.741379 2.862263 -0.098178
v -0.672951 2.844054 -0.177062
v 0.504796 3.253763 -0.041107
v 0.479423 3.184198 0.034372
v 0.919110 2.861048 -0.068920
v 0.850603 2.841174 0.009569
v -0.287059 3.184136 0.077734
v -0.320766 3.253724 0.005609
v -0.657526 2.841016 0.094873
v -0.734422 2.860910 0.024647
v -0.506955 2.800477 -0.186934
v -0.196712 2.968089 -0.127776
v -0.430498 2.780715 -0.116681
v 0.600138 2.780762 -0.174960
v 0.391496 3.037695 -0.235168
v 0.668151 2.800492 -0.253412
v -0.189803 2.966724 -0.005008
v -0.214995 3.034642 0.072033
v -0.423541 2.779362 0.006145
v -0.491536 2.797452 0.085050
v 0.406915 3.034670 0.036817
v 0.373079 2.966725 -0.036852
v 0.683569 2.797468 0.018573
v 0.607047 2.779396 -0.052193
v 0.090568 2.219137 -0.029199
v 0.606730 2.219185 -0.058360
v -0.430814 2.220505 -0.122849
v 0.083605 2.220504 -0.151971
v -0.741859 1.998591 -0.107753
v -0.097804 1.998617 -0.144145
v 0.599827 2.220539 -0.181179
v 0.668936 2.146749 -0.260725
v 0.832891 2.074206 -0.270797
v 0.911665 1.998691 -0.201254
v 0.199939 2.074310 -0.235021
v 0.265580 1.998654 -0.164699
v -0.042078 0.079334 -0.243494
v -0.098871 0.078473 -0.165432
v -0.041537 1.051310 -0.232729
v -0.098328 1.050502 -0.154681
v 0.203425 0.003773 -0.183366
v 0.264513 0.078511 -0.185986
v 0.214631 0.076336 0.014829
v 0.210388 0.002407 -0.060594
v 0.271476 0.077145 -0.063213
v -0.037865 0.003798 -0.169717
v -0.030902 0.002432 -0.046944
v -0.091962 0.077107 -0.042665
v -0.493045 2.143634 0.077832
v -0.656041 2.071071 0.086238
v -0.025110 2.071271 0.050550
v -0.423851 2.219139 -0.000075
v 0.272018 1.049121 -0.052449
v 0.265055 1.050487 -0.175222
v 0.215173 1.048313 0.025594
v -0.411570 0.510810 -0.111118
v -0.380726 0.511157 -0.145651
v -0.413456 0.478460 -0.144156
v -0.413350 0.666572 -0.142087
v -0.380659 0.633802 -0.144276
v -0.411504 0.633454 -0.109744
v -0.408162 0.632758 -0.050468
v -0.373643 0.632404 -0.019587
v -0.406281 0.665173 -0.017391
v -0.406387 0.477062 -0.019459
v -0.373708 0.509812 -0.020974
v -0.408233 0.510179 -0.051804
v -0.230360 3.037665 -0.199946
v -0.734896 1.997225 0.015019
v -0.090895 1.997251 -0.021379
v 0.918628 1.997325 -0.078483
v 0.272543 1.997289 -0.041926
v 0.366116 2.968091 -0.159625
v -0.091419 1.049136 -0.031914
v -0.520360 0.933653 -0.100228
v -0.520522 0.633426 -0.103601
v -0.516964 0.932956 -0.040948
v -0.517131 0.632795 -0.044281
v -0.520594 0.510794 -0.104924
v -0.520660 0.387534 -0.106313
v -0.517197 0.510151 -0.045657
v -0.517269 0.386904 -0.046994
v -0.411338 0.933616 -0.106409
v -0.407994 0.932972 -0.047148
v -0.408299 0.386919 -0.053194
v -0.411642 0.387562 -0.112456
v 0.082478 0.003773 -0.176516
v 0.089387 0.002407 -0.053749
v -0.062388 0.933007 -0.066699
v -0.065731 0.933650 -0.125961
v -0.067762 0.633814 -0.161998
v -0.067617 0.901300 -0.158998
v -0.413224 0.901266 -0.139447
v -0.067834 0.511182 -0.163321
v -0.066036 0.387597 -0.132007
v -0.062692 0.386954 -0.072745
v -0.406419 0.419282 -0.020103
v -0.060812 0.419316 -0.039656
v -0.060757 0.509823 -0.038691
v -0.060691 0.632468 -0.037316
v -0.067882 0.420715 -0.164351
v -0.413488 0.420680 -0.144800
v -0.060542 0.899889 -0.034354
v -0.406148 0.899855 -0.014803
v -0.482589 0.665168 -0.013078
v -0.482457 0.899849 -0.010490
v -0.489533 0.901261 -0.135133
v -0.489658 0.666566 -0.137775
v -0.482727 0.419277 -0.015791
v -0.482695 0.477056 -0.015147
v -0.489765 0.478455 -0.139842
v -0.489797 0.420675 -0.140487
vn 0.054600 0.121600 -0.991100
vn -0.170600 -0.109600 -0.979200
vn -0.350000 -0.290700 -0.890400
vn -0.052000 0.392900 -0.918100
vn 0.349800 -0.310700 0.883800
vn -0.054500 0.099700 0.993500
vn 0.170500 -0.131400 0.976500
vn 0.052400 0.372400 0.926600
vn 0.332200 -0.326400 -0.884900
vn -0.052400 -0.372500 -0.926500
vn 0.376600 0.010000 -0.926300
vn -0.056500 0.011100 -0.998300
vn -0.332500 -0.345500 0.877500
vn 0.052000 -0.393000 0.918000
vn -0.376400 -0.010000 0.926400
vn 0.056500 -0.011100 0.998300
vn 0.111800 0.434300 -0.893800
vn 0.325800 0.873300 -0.362300
vn 0.368100 0.208100 -0.906200
vn 0.841600 0.366800 -0.396400
vn -0.366400 0.872000 -0.324500
vn -0.215800 0.434000 -0.874700
vn -0.880200 0.367700 -0.299900
vn -0.467300 0.212000 -0.858300
vn 0.367000 0.864300 0.343900
vn 0.215700 0.414300 0.884200
vn 0.880400 0.360500 0.308000
vn 0.467500 0.192900 0.862700
vn -0.111800 0.414200 0.903300
vn -0.325300 0.865100 0.381700
vn -0.367700 0.187800 0.910800
vn -0.841300 0.358300 0.404700
vn 0.206600 -0.104700 -0.972800
vn 0.279200 -0.855400 -0.436300
vn 0.783400 -0.409000 -0.468000
vn -0.833100 -0.400000 -0.382000
vn -0.159200 -0.278800 -0.947100
vn -0.318900 -0.103300 -0.942100
vn 0.318800 -0.865100 0.387100
vn 0.158900 -0.299900 0.940600
vn 0.832900 -0.409000 0.372800
vn 0.318600 -0.124300 0.939700
vn -0.053600 -0.295400 0.953900
vn -0.279800 -0.864600 0.417400
vn -0.206700 -0.126000 0.970200
vn -0.783800 -0.419000 0.458300
vn 0.022100 0.919600 0.392200
vn -0.548500 0.572000 0.609800
vn 0.549300 0.584600 -0.597000
vn -0.021100 0.928000 -0.371800
vn -0.672000 -0.646500 -0.361000
vn -0.645700 -0.565100 -0.513600
vn -0.613600 0.584200 -0.531200
vn -0.166100 0.121700 -0.978500
vn 0.248400 -0.290300 -0.924100
vn 0.627200 -0.646300 -0.434700
vn 0.059100 -0.109300 -0.992200
vn 0.583900 -0.565000 -0.582900
vn -0.429900 -0.326400 -0.841800
vn -0.917600 -0.302600 -0.257800
vn -0.478700 0.010100 -0.877900
vn -0.959200 0.003700 -0.282500
vn 0.361500 -0.857300 -0.366500
vn 0.882800 -0.302300 -0.359600
vn 0.429400 -0.345300 0.834500
vn 0.399500 -0.864700 0.304400
vn 0.917300 -0.309100 0.251000
vn -0.400300 -0.857400 -0.323300
vn -0.362300 -0.864900 0.347400
vn -0.883000 -0.309500 0.352800
vn 0.166200 0.099700 0.981000
vn -0.248700 -0.310500 0.917400
vn -0.059300 -0.131300 0.989500
vn 0.614300 0.571600 0.543900
vn 0.959200 -0.003600 0.282500
vn 0.921300 0.003800 -0.388800
vn 0.478500 -0.009900 0.878000
vn -0.632100 0.609800 -0.478000
vn -0.342300 0.112500 -0.932800
vn -0.155400 0.300200 -0.941100
vn -0.155500 -0.278800 -0.947700
vn -0.342600 -0.091500 -0.935000
vn -0.632800 -0.598400 -0.491400
vn -0.574800 -0.609800 0.545700
vn -0.235600 -0.112500 0.965300
vn -0.048400 -0.299600 0.952800
vn -0.047900 0.278800 0.959100
vn -0.235200 0.091800 0.967600
vn -0.573600 0.598400 0.559300
vn 0.053300 -0.274400 -0.960100
vn -0.627900 -0.655100 0.420200
vn -0.584300 -0.577100 0.570500
vn 0.671300 -0.655100 0.346600
vn 0.644900 -0.577200 0.501000
vn -0.319200 -0.856200 -0.406200
vn -0.921300 -0.003800 0.388700
vn -0.671400 0.655100 -0.346400
vn -0.672100 -0.646500 -0.360900
vn -0.627000 0.646100 0.435200
vn -0.627800 -0.655000 0.420500
vn -0.671700 0.654800 -0.346400
vn -0.627100 0.646400 0.434600
vn -0.020900 0.928000 -0.371800
vn 0.022200 0.919600 0.392200
vn 0.021200 -0.928200 0.371500
vn -0.022000 -0.919600 -0.392100
vn -0.022300 -0.919600 -0.392200
vn 0.021000 -0.928100 0.371700
vn 0.022100 0.919600 0.392100
vn -0.021100 0.928100 -0.371800
vn -0.056500 0.011000 -0.998300
vn -0.052000 0.393100 -0.918000
vn -0.051900 0.393000 -0.918000
vn -0.022100 -0.919700 -0.392100
vn 0.021100 -0.928200 0.371600
vn 0.052000 -0.393300 0.917900
vn 0.052000 -0.393100 0.918000
vn 0.056500 -0.010900 0.998300
vn 0.056500 -0.011200 0.998300
vn -0.052400 -0.372300 -0.926600
vn -0.052300 -0.372400 -0.926600
vn 0.052300 0.372500 0.926500
vn -0.248800 -0.310300 0.917500
vn -0.248300 0.290000 0.924200
vn -0.350700 0.310200 -0.883600
vn -0.350900 -0.290000 -0.890300
vn -0.249000 -0.310200 0.917400
vn -0.248800 0.290200 0.924000
vn -0.350600 0.310600 -0.883500
usemtl None
s 1
f 1//1 2//2 3//3
f 2//2 1//1 4//4
f 5//5 6//6 7//7
f 7//7 6//6 8//8
f 9//9 10//10 11//11
f 11//11 10//10 12//12
f 13//13 14//14 15//15
f 15//15 14//14 16//16
f 17//17 18//18 19//19
f 19//19 18//18 20//20
f 21//21 22//22 23//23
f 23//23 22//22 24//24
f 25//25 26//26 27//27
f 27//27 26//26 28//28
f 29//29 30//30 31//31
f 31//31 30//30 32//32
f 33//33 34//34 35//35
f 36//36 37//37 38//38
f 39//39 40//40 41//41
f 41//41 40//40 42//42
f 43//43 44//44 45//45
f 45//45 44//44 46//46
f 47//47 8//8 48//48
f 48//48 8//8 6//6
f 1//1 49//49 4//4
f 4//4 49//49 50//50
f 51//51 3//3 52//52
f 3//3 2//2 52//52
f 36//36 38//38 53//53
f 53//53 38//38 54//54
f 53//53 54//54 50//50
f 50//50 54//54 4//4
f 55//55 56//56 57//57
f 57//57 56//56 58//58
f 59//59 60//60 61//61
f 61//61 60//60 62//62
f 63//63 9//9 64//64
f 65//65 66//66 67//67
f 68//68 60//60 59//59
f 69//69 13//13 70//70
f 71//71 72//72 8//8
f 8//8 72//72 73//73
f 54//54 57//57 4//4
f 74//74 71//71 47//47
f 47//47 71//71 8//8
f 75//75 67//67 76//76
f 76//76 67//67 64//64
f 16//16 14//14 77//77
f 77//77 14//14 65//65
f 12//12 10//10 61//61
f 61//61 10//10 59//59
f 77//77 65//65 75//75
f 75//75 65//65 67//67
f 76//76 64//64 11//11
f 11//11 64//64 9//9
f 78//78 79//79 80//80
f 81//81 82//82 83//83
f 84//84 85//85 86//86
f 87//87 88//88 89//89
f 21//21 30//30 18//18
f 18//18 30//30 25//25
f 90//90 22//22 37//37
f 37//37 22//22 17//17
f 21//21 23//23 30//30
f 30//30 23//23 32//32
f 71//71 42//42 31//31
f 31//31 42//42 40//40
f 31//31 40//40 29//29
f 39//39 41//41 34//34
f 34//34 41//41 35//35
f 1//1 3//3 24//24
f 1//1 24//24 33//33
f 33//33 24//24 22//22
f 33//33 22//22 90//90
f 41//41 74//74 35//35
f 35//35 74//74 49//49
f 91//91 32//32 51//51
f 51//51 32//32 23//23
f 72//72 71//71 31//31
f 48//48 53//53 47//47
f 47//47 53//53 50//50
f 47//47 50//50 74//74
f 74//74 50//50 49//49
f 92//92 91//91 52//52
f 52//52 91//91 51//51
f 56//56 93//93 58//58
f 58//58 93//93 94//94
f 44//44 39//39 95//95
f 95//95 39//39 34//34
f 43//43 26//26 40//40
f 40//40 26//26 29//29
f 20//20 18//18 27//27
f 27//27 18//18 25//25
f 6//6 5//5 28//28
f 6//6 28//28 45//45
f 45//45 28//28 26//26
f 45//45 26//26 43//43
f 46//46 44//44 36//36
f 36//36 44//44 95//95
f 54//54 38//38 19//19
f 19//19 38//38 37//37
f 19//19 37//37 17//17
f 20//20 27//27 56//56
f 56//56 27//27 93//93
f 48//48 46//46 53//53
f 53//53 46//46 36//36
f 61//61 2//2 12//12
f 12//12 2//2 4//4
f 12//12 4//4 57//57
f 11//11 12//12 57//57
f 52//52 62//62 92//92
f 92//92 62//62 96//96
f 92//92 96//96 15//15
f 7//7 8//8 16//16
f 16//16 8//8 73//73
f 16//16 73//73 15//15
f 97//97 98//98 99//99
f 99//99 98//98 100//100
f 101//101 102//98 103//102
f 103//102 102//98 104//100
f 105//103 97//97 106//104
f 106//104 97//97 99//99
f 107//105 104//100 108//106
f 108//106 104//100 102//98
f 84//84 100//100 83//83
f 83//83 100//100 98//98
f 78//78 101//101 89//89
f 89//89 101//101 103//102
f 89//89 84//84 78//78
f 78//78 84//84 83//83
f 19//19 55//55 54//54
f 54//54 55//55 57//57
f 69//69 68//68 109//107
f 69//69 109//107 110//108
f 110//108 109//107 63//63
f 110//108 63//63 66//66
f 21//21 18//18 22//22
f 22//22 18//18 17//17
f 23//23 24//24 51//51
f 51//51 24//24 3//3
f 29//29 26//26 30//30
f 30//30 26//26 25//25
f 31//31 32//32 72//72
f 72//72 32//32 91//91
f 37//37 36//36 95//95
f 37//37 95//95 90//90
f 90//90 95//95 34//34
f 90//90 34//34 33//33
f 35//35 1//1 33//33
f 1//1 35//35 49//49
f 40//40 39//39 43//43
f 43//43 39//39 44//44
f 41//41 42//42 74//74
f 74//74 42//42 71//71
f 72//72 91//91 73//73
f 73//73 91//91 92//92
f 73//73 92//92 15//15
f 52//52 2//2 62//62
f 62//62 2//2 61//61
f 19//19 20//20 55//55
f 55//55 20//20 56//56
f 27//27 28//28 93//93
f 93//93 28//28 5//5
f 45//45 46//46 6//6
f 6//6 46//46 48//48
f 93//93 5//5 94//94
f 94//94 5//5 7//7
f 58//58 94//94 75//75
f 75//75 94//94 7//7
f 75//75 7//7 77//77
f 75//75 76//76 58//58
f 58//58 76//76 11//11
f 58//58 11//11 57//57
f 68//68 59//59 109//107
f 109//107 59//59 10//10
f 109//107 10//10 63//63
f 63//63 10//10 9//9
f 63//63 64//64 66//66
f 66//66 64//64 67//67
f 13//13 69//69 14//14
f 14//14 69//69 110//108
f 14//14 110//108 65//65
f 65//65 110//108 66//66
f 60//60 68//68 70//70
f 70//70 68//68 69//69
f 70//70 13//13 96//96
f 96//96 13//13 15//15
f 7//7 16//16 77//77
f 62//62 60//60 96//96
f 96//96 60//60 70//70
f 106//104 111//109 105//103
f 105//103 111//109 112//110
f 113//111 82//82 114//112
f 114//112 82//82 81//81
f 114//112 81//81 115//113
f 79//79 82//82 116//12
f 116//12 82//82 113//111
f 108//106 117//114 107//105
f 107//105 117//114 118//115
f 119//116 120//117 87//87
f 87//87 120//117 121//118
f 87//87 121//118 88//88
f 85//85 88//88 122//119
f 122//119 88//88 121//118
f 123//120 124//121 116//12
f 116//12 124//121 80//80
f 116//12 80//80 79//79
f 85//85 122//119 86//86
f 86//86 122//119 125//8
f 86//86 125//8 126//122
f 127//123 86//86 128//124
f 128//124 86//86 126//122
f 129//125 115//113 130//126
f 130//126 115//113 81//81
f 131//127 119//116 132//128
f 132//128 119//116 87//87
f 133//129 80//80 134//126
f 134//126 80//80 124//121
f 99//99 128//124 106//104
f 106//104 128//124 126//122
f 128//124 99//99 127//123
f 127//123 99//99 100//100
f 127//123 100//100 86//86
f 86//86 100//100 84//84
f 129//125 97//97 115//113
f 115//113 97//97 105//103
f 97//97 129//125 98//98
f 98//98 129//125 130//126
f 98//98 130//126 83//83
f 83//83 130//126 81//81
f 131//127 104//100 119//116
f 119//116 104//100 107//105
f 104//100 131//127 103//102
f 103//102 131//127 132//128
f 103//102 132//128 89//89
f 89//89 132//128 87//87
f 102//98 134//126 108//106
f 108//106 134//126 124//121
f 134//126 102//98 133//129
f 133//129 102//98 101//101
f 133//129 101//101 80//80
f 80//80 101//101 78//78
f 79//79 78//78 82//82
f 82//82 78//78 83//83
f 85//85 84//84 88//88
f 88//88 84//84 89//89
f 106//104 126//122 111//109
f 111//109 126//122 125//8
f 115//113 105//103 114//112
f 114//112 105//103 112//110
f 108//106 124//121 117//114
f 117//114 124//121 123//120
f 119//116 107//105 120//117
f 120//117 107//105 118//115
